<?xml version="1.0"?>
<svg xmlns="http://www.w3.org/2000/svg" id="icons" enable-background="new 0 0 64 64" height="512px" viewBox="0 0 64 64" width="512px"><g><path d="m61.5 45.502h-13.496v-26c0-.552-.447-1-1-1-.001 0-.001 0-.002 0s-.001 0-.002 0h-1.998v-7.828c0-.031-.015-.058-.018-.088.003-.03.018-.057.018-.088 0-.552-.447-1-1-1h-4.01c-.553 0-1 .448-1 1v17.313l-3.054-13.366c-.248-1.092-1.18-1.866-2.287-1.932-.047-.006-.088-.027-.137-.027h-17.016c-1.379 0-2.501 1.123-2.501 2.502v14.512h-8.997c-2.757 0-5 2.243-5 5v14.002c0 .553.447 1 1 1h2.184c.68 2.862 3.25 5 6.317 5s5.639-2.138 6.318-5h16.365c.68 2.862 3.25 5 6.317 5 2.768 0 5.131-1.742 6.066-4.186.289.117.604.186.936.186h15.997c1.379 0 2.5-1.121 2.5-2.5s-1.121-2.5-2.5-2.5zm-47.503 2.539c-.021 2.463-2.028 4.461-4.496 4.461-2.48 0-4.499-2.019-4.499-4.5s2.019-4.5 4.499-4.5c2.468 0 4.475 1.998 4.496 4.461zm0-4.722c-1.169-1.123-2.752-1.817-4.496-1.817-3.415 0-6.217 2.649-6.474 6h-1.027v-8.002h11.997zm0-5.819h-11.997v-3c0-1.654 1.346-3 3-3 0 .552.447 1 1 1s1-.448 1-1h1c0 .552.447 1 1 1s1-.448 1-1h1c0 .552.447 1 1 1s1-.448 1-1h.997zm2-22.512c0-.277.225-.502.501-.502h16.934c.026.002.048.015.074.016.232.002.432.162.483.389l5.003 21.898v.711h-.861l-4.853-21.237c-.007-.03-.027-.052-.037-.081-.02-.062-.047-.118-.078-.173-.033-.061-.068-.117-.113-.168-.037-.043-.077-.078-.122-.114-.057-.046-.113-.087-.179-.12-.046-.023-.094-.04-.144-.056-.076-.025-.152-.042-.233-.047-.023-.001-.044-.014-.068-.014h-14.304c-.553 0-1 .448-1 1v21.01h-1.003zm16.899 10.068c-.248-.494-.848-.694-1.342-.447l-6.002 3.001c-.494.247-.694.848-.447 1.342.176.351.528.553.896.553.15 0 .303-.034.446-.105l2.057-1.028 3.974 9.129h-6.479v-.998h.249.001c1.378-.001 2.498-1.122 2.498-2.5s-1.121-2.5-2.5-2.5h-7.247v-14.013h12.508l4.572 20.01h-1.421l-4.363-10.025 2.153-1.077c.494-.247.695-.848.447-1.342zm-13.896 9.451v-1.003l7.241-.002c.002 0 .003.001.005.001.275 0 .5.224.5.499s-.225.5-.5.5c0 0 0 0-.001 0zm4.998 1.997v.996h-4.998v-.993zm8.03 10.998h-16.031v-8.002h21.314c.008 0 .015.004.022.004.012 0 .023-.004.034-.004h1.624v2.026c-.162-.012-.325-.024-.49-.024-3.414 0-6.216 2.649-6.473 6zm6.474 5c-2.48 0-4.499-2.019-4.499-4.5s2.019-4.5 4.499-4.5c2.481 0 4.5 2.019 4.5 4.5s-2.019 4.5-4.5 4.5zm4.5-9.18c-.579-.557-1.258-1.009-2.01-1.322v-4.944c.034-.144.045-.294.01-.448l-.01-.043v-25.067h2.01zm2-22.821h1.002v10.009h-1.002zm16.498 28.001h-15.996c-.275 0-.5-.225-.5-.5v-15.492h1v13.992c0 .553.447 1 1 1h14.496c.275 0 .5.225.5.5s-.225.5-.5.5z" data-original="#000000" class="active-path" data-old_color="#000000" fill="#FFFFFF"/><path d="m9.501 44.502c-1.93 0-3.499 1.57-3.499 3.5s1.569 3.5 3.499 3.5c1.931 0 3.501-1.57 3.501-3.5s-1.57-3.5-3.501-3.5zm0 5c-.826 0-1.499-.673-1.499-1.5s.673-1.5 1.499-1.5c.827 0 1.501.673 1.501 1.5s-.674 1.5-1.501 1.5z" data-original="#000000" class="active-path" data-old_color="#000000" fill="#FFFFFF"/><path d="m38.501 44.502c-1.93 0-3.499 1.57-3.499 3.5s1.569 3.5 3.499 3.5c1.931 0 3.501-1.57 3.501-3.5s-1.57-3.5-3.501-3.5zm0 5c-.826 0-1.499-.673-1.499-1.5s.673-1.5 1.499-1.5c.827 0 1.501.673 1.501 1.5s-.674 1.5-1.501 1.5z" data-original="#000000" class="active-path" data-old_color="#000000" fill="#FFFFFF"/></g> </svg>
