<?xml version="1.0"?>
<svg xmlns="http://www.w3.org/2000/svg" xmlns:xlink="http://www.w3.org/1999/xlink" version="1.1" id="Capa_1" x="0px" y="0px" viewBox="0 0 511 511" style="enable-background:new 0 0 511 511;" xml:space="preserve" width="512px" height="512px"><g><g>
	<path d="M111.5,308.636c-35.014,0-63.5,28.486-63.5,63.5s28.486,63.5,63.5,63.5s63.5-28.486,63.5-63.5   S146.514,308.636,111.5,308.636z M111.5,420.636c-26.743,0-48.5-21.757-48.5-48.5s21.757-48.5,48.5-48.5s48.5,21.757,48.5,48.5   S138.243,420.636,111.5,420.636z" data-original="#000000" class="active-path" data-old_color="#000000" fill="#777777"/>
	<path d="M135.5,364.636c-4.142,0-7.5,3.358-7.5,7.5c0,9.098-7.402,16.5-16.5,16.5s-16.5-7.402-16.5-16.5s7.402-16.5,16.5-16.5   c4.142,0,7.5-3.358,7.5-7.5s-3.358-7.5-7.5-7.5c-17.369,0-31.5,14.131-31.5,31.5s14.131,31.5,31.5,31.5s31.5-14.131,31.5-31.5   C143,367.994,139.642,364.636,135.5,364.636z" data-original="#000000" class="active-path" data-old_color="#000000" fill="#777777"/>
	<path d="M494.809,314.322l-12.765-82.975c-2.381-15.477-15.475-26.71-31.133-26.71h-57.672l-34.054-133.33   c-1.227-5.534,0.431-11.224,4.442-15.236l15.903-15.904c2.929-2.929,2.929-7.678,0-10.606c-2.929-2.929-7.678-2.929-10.606,0   l-15.903,15.903c-7.7,7.7-10.856,18.636-8.443,29.255c0.015,0.065,0.03,0.129,0.047,0.194l33.133,129.724h-29.74l-34.731-129h6.214   c4.142,0,7.5-3.358,7.5-7.5s-3.358-7.5-7.5-7.5h-152c-17.369,0-31.5,14.131-31.5,31.5v128.5H60.723   c-20.564,0-37.476,15.444-39.337,35.924l-5.261,57.873C5.895,331.277,0,351.031,0,372.136c0,61.481,50.019,111.5,111.5,111.5   c56.222,0,102.85-41.83,110.417-96h67.165c7.568,54.17,54.196,96,110.417,96c61.481,0,111.5-50.019,111.5-111.5   C511,350.985,505.079,331.19,494.809,314.322z M450.91,219.636c8.202,0,15.061,5.884,16.308,13.991l8.852,57.535   c-19.988-18.911-46.947-30.526-76.57-30.526c-12.184,0-23.915,1.971-34.898,5.6l-12.546-46.6H450.91z M343.252,244.636H243.085   c-4.252,0-8.42-1.119-12.085-3.195V100.136c0-4.142-3.358-7.5-7.5-7.5s-7.5,3.358-7.5,7.5v129.321l-13.306-11.088   C195.262,212.175,191,203.075,191,193.401V75.636h106.752L343.252,244.636z M151,92.136c0-9.098,7.402-16.5,16.5-16.5h8.5v117.765   c0,14.139,6.229,27.439,17.091,36.491l24.707,20.589c7.084,5.904,16.065,9.155,25.287,9.155h104.205l3.314,12.31   c-7.378,3.615-14.298,8.022-20.654,13.108c-0.769-0.266-1.591-0.418-2.451-0.418h-144c-0.859,0-1.682,0.152-2.451,0.418   c-8.989-7.193-19.109-13.025-30.049-17.183V92.136z M60.723,235.636H136v27.718c-7.887-1.775-16.085-2.718-24.5-2.718   c-30.515,0-58.202,12.326-78.356,32.255l3.18-34.974C37.478,245.216,47.967,235.636,60.723,235.636z M111.5,468.636   c-53.21,0-96.5-43.29-96.5-96.5c0-53.21,43.29-96.5,96.5-96.5s96.5,43.29,96.5,96.5C208,425.347,164.71,468.636,111.5,468.636z    M222.994,372.636c0.001-0.167,0.006-0.333,0.006-0.5c0-27.657-10.126-52.992-26.86-72.5H314.86   c-16.734,19.508-26.86,44.843-26.86,72.5c0,0.167,0.006,0.333,0.006,0.5H222.994z M399.5,468.636c-53.21,0-96.5-43.29-96.5-96.5   c0-53.21,43.29-96.5,96.5-96.5s96.5,43.29,96.5,96.5C496,425.347,452.71,468.636,399.5,468.636z" data-original="#000000" class="active-path" data-old_color="#000000" fill="#777777"/>
	<path d="M399.5,308.636c-35.014,0-63.5,28.486-63.5,63.5s28.486,63.5,63.5,63.5s63.5-28.486,63.5-63.5   S434.514,308.636,399.5,308.636z M399.5,420.636c-26.743,0-48.5-21.757-48.5-48.5s21.757-48.5,48.5-48.5s48.5,21.757,48.5,48.5   S426.243,420.636,399.5,420.636z" data-original="#000000" class="active-path" data-old_color="#000000" fill="#777777"/>
	<path d="M423.5,364.636c-4.142,0-7.5,3.358-7.5,7.5c0,9.098-7.402,16.5-16.5,16.5s-16.5-7.402-16.5-16.5s7.402-16.5,16.5-16.5   c4.142,0,7.5-3.358,7.5-7.5s-3.358-7.5-7.5-7.5c-17.369,0-31.5,14.131-31.5,31.5s14.131,31.5,31.5,31.5s31.5-14.131,31.5-31.5   C431,367.994,427.642,364.636,423.5,364.636z" data-original="#000000" class="active-path" data-old_color="#000000" fill="#777777"/>
	<path d="M271.5,316.636h-32c-4.142,0-7.5,3.358-7.5,7.5s3.358,7.5,7.5,7.5h32c4.142,0,7.5-3.358,7.5-7.5   S275.642,316.636,271.5,316.636z" data-original="#000000" class="active-path" data-old_color="#000000" fill="#777777"/>
	<path d="M271.5,340.636h-32c-4.142,0-7.5,3.358-7.5,7.5s3.358,7.5,7.5,7.5h32c4.142,0,7.5-3.358,7.5-7.5   S275.642,340.636,271.5,340.636z" data-original="#000000" class="active-path" data-old_color="#000000" fill="#777777"/>
</g></g> </svg>
